<svg xmlns="http://www.w3.org/2000/svg" viewBox="0 0 512 512" style="enable-background:new 0 0 512 512" xml:space="preserve"><path style="fill:#fdff" d="M84.977 114.906v68.409H8.017v153.921h119.716v-222.33H84.977zm0 188.125H50.772V217.52h34.205v85.511z"/><path style="fill:#1c9ad6" d="M8.017 183.315h17.102v153.921H8.017z"/><path style="fill:#3caf" d="M230.347 183.315v153.921h76.96v25.653h-76.96v34.205h119.716V183.315H230.347zm42.755 119.716V217.52h34.205v85.511h-34.205z"/><path style="fill:#1c9ad6" d="M230.347 362.889h17.102v34.205h-17.102zm0-179.574h17.102v153.921h-17.102z"/><path style="fill:#857" d="M384.267 183.315v153.921h76.96v25.653h-76.96v34.205h119.716V183.315H384.267zm42.756 119.716V217.52h34.205v85.511h-34.205z"/><path style="fill:#1c9ad6" d="M384.267 183.315h17.102v153.921h-17.102zm0 179.574h17.102v34.205h-17.102z"/><path style="fill:#3cafe6" d="M161.937 183.315h34.205v153.921h-34.205z"/><path style="fill:#1c9ad6" d="M161.937 183.315h17.102v153.921h-17.102z"/><path style="fill:#3cafe6" d="M161.937 114.906h34.205v34.205h-34.205z"/><path style="fill:#1c9ad6" d="M161.937 114.906h17.102v34.205h-17.102z"/><path d="M84.977 209.503H50.772a8.016 8.016 0 0 0-8.017 8.017v85.511a8.016 8.016 0 0 0 8.017 8.017h34.205a8.016 8.016 0 0 0 8.017-8.017V217.52a8.016 8.016 0 0 0-8.017-8.017zm-8.017 85.512H58.789v-69.478H76.96v69.478z"/><path d="M127.733 106.889H84.977a8.016 8.016 0 0 0-8.017 8.017v60.392H8.017A8.016 8.016 0 0 0 0 183.315v153.921a8.016 8.016 0 0 0 8.017 8.017h119.716a8.016 8.016 0 0 0 8.017-8.017v-85.511a8.016 8.016 0 0 0-8.017-8.017 8.016 8.016 0 0 0-8.017 8.017v77.495H16.033V191.332h68.944a8.016 8.016 0 0 0 8.017-8.017v-60.392h26.722v94.597a8.016 8.016 0 0 0 8.017 8.017 8.016 8.016 0 0 0 8.017-8.017V114.906a8.017 8.017 0 0 0-8.017-8.017zm179.574 102.614h-34.205a8.016 8.016 0 0 0-8.017 8.017v85.511a8.016 8.016 0 0 0 8.017 8.017h34.205a8.016 8.016 0 0 0 8.017-8.017V217.52a8.016 8.016 0 0 0-8.017-8.017zm-8.017 85.512h-18.171v-69.478h18.171v69.478z"/><path d="M350.063 175.299H230.347a8.016 8.016 0 0 0-8.017 8.017v153.921a8.016 8.016 0 0 0 8.017 8.017h68.944v9.62h-68.944a8.016 8.016 0 0 0-8.017 8.017v34.205a8.016 8.016 0 0 0 8.017 8.017h68.409c4.428 0 8.017-3.588 8.017-8.017s-3.588-8.017-8.017-8.017h-60.392v-18.171h68.944a8.016 8.016 0 0 0 8.017-8.017v-25.653a8.016 8.016 0 0 0-8.017-8.017h-68.944V191.332h103.683v197.745h-9.086c-4.428 0-8.017 3.588-8.017 8.017s3.588 8.017 8.017 8.017h17.102a8.016 8.016 0 0 0 8.017-8.017V183.315a8.016 8.016 0 0 0-8.017-8.016zm76.96 135.749h34.205a8.016 8.016 0 0 0 8.017-8.017V217.52a8.016 8.016 0 0 0-8.017-8.017h-34.205a8.016 8.016 0 0 0-8.017 8.017v85.511a8.016 8.016 0 0 0 8.017 8.017zm8.017-85.511h18.171v69.478H435.04v-69.478z"/><path d="M503.983 175.299H384.267a8.016 8.016 0 0 0-8.017 8.017v153.921a8.016 8.016 0 0 0 8.017 8.017h68.944v9.62h-68.944a8.016 8.016 0 0 0-8.017 8.017v34.205a8.016 8.016 0 0 0 8.017 8.017h119.716a8.016 8.016 0 0 0 8.017-8.017V183.315a8.015 8.015 0 0 0-8.017-8.016zm-8.016 213.778H392.284v-18.171h68.944a8.016 8.016 0 0 0 8.017-8.017v-25.653a8.016 8.016 0 0 0-8.017-8.017h-68.944V191.332h103.683v197.745zM196.142 175.299h-34.205a8.016 8.016 0 0 0-8.017 8.017v153.921a8.016 8.016 0 0 0 8.017 8.017h34.205a8.016 8.016 0 0 0 8.017-8.017V183.315a8.016 8.016 0 0 0-8.017-8.016zm-8.017 153.92h-18.171V191.332h18.171v137.887zm8.017-222.33h-34.205a8.016 8.016 0 0 0-8.017 8.017v34.205a8.016 8.016 0 0 0 8.017 8.017h34.205a8.016 8.016 0 0 0 8.017-8.017v-34.205a8.017 8.017 0 0 0-8.017-8.017zm-8.017 34.205h-18.171v-18.171h18.171v18.171z"/></svg>